<svg xmlns="http://www.w3.org/2000/svg" width="37.077" height="37.073" viewBox="0 0 37.077 37.073"><defs><style>.a{stroke:#000;}.b{fill:#fff;}</style></defs><g transform="translate(0.535 0.539)"><path class="a" d="M35.466,22.351A18,18,0,1,1,22.356.538,18,18,0,0,1,35.466,22.351Z" transform="translate(0 0)"/><path class="b" d="M32.753,20.313c.358-2.395-1.466-3.682-3.96-4.541l.809-3.244-1.976-.492-.788,3.159c-.519-.129-1.052-.251-1.582-.372l.793-3.179-1.974-.492-.81,3.243c-.43-.1-.852-.195-1.261-.3l0-.01-2.724-.68-.525,2.109s1.465.336,1.435.357a1.05,1.05,0,0,1,.92,1.148l-.921,3.7a1.636,1.636,0,0,1,.205.066l-.208-.052L18.9,25.908a.719.719,0,0,1-.905.469c.02.029-1.436-.358-1.436-.358l-.981,2.261,2.571.641c.478.12.947.245,1.408.363l-.817,3.282,1.973.492.81-3.246c.538.146,1.062.281,1.573.408l-.807,3.231,1.975.492.817-3.275c3.368.637,5.9.38,6.966-2.665.859-2.452-.042-3.867-1.814-4.79a3.152,3.152,0,0,0,2.522-2.9Zm-4.513,6.327c-.611,2.452-4.74,1.127-6.08.794l1.085-4.347c1.339.334,5.632,1,5,3.553Zm.61-6.362c-.557,2.231-3.994,1.1-5.11.819l.983-3.943C25.839,17.432,29.43,17.95,28.85,20.277Z" transform="translate(-6.811 -4.879)"/></g></svg>