<svg xmlns="http://www.w3.org/2000/svg" width="154" height="38" viewBox="0 0 154 38"><defs><style>.a{fill:none;}</style></defs><g transform="translate(-96 -197)"><path d="M17.61-5.61a7.423,7.423,0,0,1-4.68,1.74A5.982,5.982,0,0,1,8.7-5.43,5.944,5.944,0,0,1,7.14-9.54a7.034,7.034,0,0,1,1.8-4.71,5.972,5.972,0,0,1,4.74-1.89,6.754,6.754,0,0,1,5.01,2.01l.57-4.89a10.823,10.823,0,0,0-5.67-1.44,11.1,11.1,0,0,0-8.01,3.12A11.472,11.472,0,0,0,2.4-9.15,9.394,9.394,0,0,0,5.1-2.22,9.722,9.722,0,0,0,12.15.45,10.521,10.521,0,0,0,17.01-.63ZM19.83,0h4.32l.72-5.7a5.753,5.753,0,0,1,1.29-3.42,3.183,3.183,0,0,1,2.22-.81,4.15,4.15,0,0,1,1.89.45l.84-4.02a6.963,6.963,0,0,0-1.77-.21,5.007,5.007,0,0,0-2.25.54,4.187,4.187,0,0,0-1.68,1.77l.39-1.98H21.48Zm12,6.87h4.86L49.62-13.38H44.55l-4.5,7.32-2.97-7.32H32.16L37.35-1.71ZM54.42-1.65A5.031,5.031,0,0,0,56.16-.12a6.235,6.235,0,0,0,2.91.57,5.99,5.99,0,0,0,4.53-1.8,8.47,8.47,0,0,0,2.25-6,7.191,7.191,0,0,0-1.77-5.01,5.619,5.619,0,0,0-4.05-1.47,5.746,5.746,0,0,0-2.76.63,5.586,5.586,0,0,0-1.68,1.38l.24-1.56H51.51L49.02,6.87h4.32Zm3.93-8.46a3.215,3.215,0,0,1,2.13.78,3.219,3.219,0,0,1,.93,2.25,4.248,4.248,0,0,1-1.2,2.88,3.539,3.539,0,0,1-2.4.93,3.111,3.111,0,0,1-2.25-.93,3.127,3.127,0,0,1-.81-2.19,3.617,3.617,0,0,1,1.08-2.7A3.389,3.389,0,0,1,58.35-10.11Zm17.73.21.42-3.48H73.86l.54-4.32H70.08l-.54,4.32H67.98L67.56-9.9h1.56L67.89,0h4.32l1.23-9.9Zm9.06-3.93a8.763,8.763,0,0,0-6.15,2.28,7.3,7.3,0,0,0-2.16,5.28,6.74,6.74,0,0,0,1.83,4.71A7.316,7.316,0,0,0,84.24.45a8.078,8.078,0,0,0,6.15-2.19,8.021,8.021,0,0,0,2.16-5.49,6.344,6.344,0,0,0-1.8-4.53A8.069,8.069,0,0,0,85.14-13.83ZM84.48-3.21a3.1,3.1,0,0,1-2.34-.9,3.331,3.331,0,0,1-.87-2.28,3.855,3.855,0,0,1,1.2-2.85,3.615,3.615,0,0,1,2.4-.93,3.606,3.606,0,0,1,2.34.84,3.152,3.152,0,0,1,.9,2.31A4.012,4.012,0,0,1,87-4.17,3.641,3.641,0,0,1,84.48-3.21Zm19.86-16.8L101.88,0h4.62l.87-7.02h2.64c3.33,0,5.04-.93,5.94-1.77a7.157,7.157,0,0,0,1.95-5.25,5.787,5.787,0,0,0-1.62-4.29,6.938,6.938,0,0,0-5.19-1.68Zm4.17,3.78h1.38a3.864,3.864,0,0,1,2.61.75,2.287,2.287,0,0,1,.66,1.74,2.82,2.82,0,0,1-.78,2.07,3.959,3.959,0,0,1-2.91.87h-1.65Zm21.45,4.47a4.819,4.819,0,0,0-1.83-1.56,6.03,6.03,0,0,0-2.61-.51,6.554,6.554,0,0,0-4.92,1.95,8.1,8.1,0,0,0-2.16,5.76,6.879,6.879,0,0,0,1.8,4.92A5.262,5.262,0,0,0,124.38.45a6.368,6.368,0,0,0,2.49-.48,5.818,5.818,0,0,0,1.89-1.5L128.43,0h4.32l1.65-13.38h-4.32Zm-3.51,1.65a3.182,3.182,0,0,1,2.25.75,3.087,3.087,0,0,1,.93,2.31,4.082,4.082,0,0,1-1.14,2.88,3.486,3.486,0,0,1-2.46.9,2.984,2.984,0,0,1-2.28-.9,3.22,3.22,0,0,1-.87-2.28,3.791,3.791,0,0,1,1.02-2.67A3.389,3.389,0,0,1,126.45-10.11Zm9.33,16.98h4.86l12.93-20.25H148.5L144-6.06l-2.97-7.32h-4.92L141.3-1.71Z" transform="translate(95 223)"/><rect class="a" width="154" height="38" transform="translate(96 197)"/></g></svg>